<svg width="23" height="23" viewBox="0 0 23 23" fill="none" xmlns="http://www.w3.org/2000/svg">
<path d="M6.11328 18.4688L0.990941 15.5114L9.71821 0.39535L14.9439 3.4124C16.4447 4.27887 17.5592 5.32581 18.2873 6.5532C19.0233 7.77851 19.3563 9.12219 19.2863 10.5842C19.2164 12.0463 18.7283 13.5621 17.8221 15.1318C16.913 16.7064 15.8389 17.8905 14.6 18.6842C13.3659 19.4807 12.0256 19.8648 10.5788 19.8365C9.13703 19.8111 7.64851 19.3552 6.11328 18.4688ZM5.09715 14.7231L7.34833 16.0228C8.40133 16.6308 9.39046 16.946 10.3157 16.9684C11.2438 16.986 12.1065 16.7132 12.904 16.1501C13.7043 15.5821 14.4383 14.72 15.1059 13.5636C15.7735 12.4073 16.1503 11.3455 16.2364 10.3783C16.3253 9.4061 16.1322 8.5303 15.6572 7.75084C15.1899 6.96931 14.4445 6.28308 13.421 5.69218L11.0886 4.34559L5.09715 14.7231Z" fill="#7B61FF"/>
</svg>
